{
    "asset" : {
        "generator" : "Khronos glTF Blender I/O v0.9.35",
        "version" : "2.0"
    },
    "scene" : 0,
    "scenes" : [
        {
            "extras" : {
                "MM" : {
                    "revision" : "9dea2e13ac59189c013df8ee84a5bd205c4faf6d"
                },
                "glTF2ExportSettings" : {
                    "export_all_influences" : 0,
                    "export_animations" : 1,
                    "export_apply" : 1,
                    "export_cameras" : 0,
                    "export_colors" : 1,
                    "export_copyright" : "",
                    "export_current_frame" : 0,
                    "export_displacement" : 0,
                    "export_draco_mesh_compression_enable" : 0,
                    "export_draco_mesh_compression_level" : 6,
                    "export_draco_normal_quantization" : 10,
                    "export_draco_position_quantization" : 14,
                    "export_draco_texcoord_quantization" : 12,
                    "export_extras" : 1,
                    "export_force_sampling" : 0,
                    "export_format" : "GLTF_EMBEDDED",
                    "export_frame_range" : 1,
                    "export_frame_step" : 1,
                    "export_image_format" : "JPEG",
                    "export_lights" : 0,
                    "export_materials" : 1,
                    "export_morph" : 1,
                    "export_morph_normal" : 1,
                    "export_morph_tangent" : 0,
                    "export_normals" : 1,
                    "export_selected" : 1,
                    "export_skins" : 1,
                    "export_tangents" : 0,
                    "export_texcoords" : 1,
                    "export_yup" : 1
                }
            },
            "name" : "Scene",
            "nodes" : [
                2
            ]
        }
    ],
    "nodes" : [
        {
            "extras" : {
                "MaxHandle" : 34
            },
            "mesh" : 0,
            "name" : "sink",
            "scale" : [
                0.999997079372406,
                1,
                1
            ],
            "translation" : [
                0,
                -201,
                -50
            ]
        },
        {
            "extras" : {
                "MaxHandle" : 34
            },
            "mesh" : 1,
            "name" : "sink_2",
            "rotation" : [
                0.023362258449196815,
                0.9221563339233398,
                0.056401513516902924,
                0.3819695711135864
            ],
            "translation" : [
                115,
                -50,
                -170
            ]
        },
        {
            "children" : [
                0,
                1
            ],
            "extras" : {
                "tissue_tessellate" : {},
                "BoolToolRoot" : 1
            },
            "mesh" : 2,
            "name" : "Plane.000"
        }
    ],
    "materials" : [
        {
            "doubleSided" : true,
            "name" : "base",
            "pbrMetallicRoughness" : {
                "baseColorFactor" : [
                    0.04954909905791283,
                    0.04954909905791283,
                    0.04954909905791283,
                    1
                ],
                "metallicFactor" : 0,
                "roughnessFactor" : 0.5
            }
        },
        {
            "doubleSided" : true,
            "name" : "metal",
            "pbrMetallicRoughness" : {
                "baseColorFactor" : [
                    0.6618646383285522,
                    0.6618646383285522,
                    0.6618646383285522,
                    1
                ],
                "metallicFactor" : 0.6499999761581421,
                "roughnessFactor" : 0.44999998807907104
            }
        },
        {
            "doubleSided" : true,
            "name" : "logo",
            "pbrMetallicRoughness" : {
                "baseColorTexture" : {
                    "index" : 0,
                    "texCoord" : 0
                },
                "metallicFactor" : 0.4681817889213562,
                "roughnessFactor" : 0.4000000059604645
            }
        },
        {
            "doubleSided" : true,
            "name" : "Material",
            "pbrMetallicRoughness" : {
                "baseColorTexture" : {
                    "index" : 1,
                    "texCoord" : 0
                },
                "metallicFactor" : 0,
                "roughnessFactor" : 0.5
            }
        }
    ],
    "meshes" : [
        {
            "name" : "Mesh.001",
            "primitives" : [
                {
                    "attributes" : {
                        "POSITION" : 0,
                        "NORMAL" : 1,
                        "TEXCOORD_0" : 2
                    },
                    "indices" : 3,
                    "material" : 0
                },
                {
                    "attributes" : {
                        "POSITION" : 4,
                        "NORMAL" : 5,
                        "TEXCOORD_0" : 6
                    },
                    "indices" : 7,
                    "material" : 1
                }
            ]
        },
        {
            "name" : "Mesh.003",
            "primitives" : [
                {
                    "attributes" : {
                        "POSITION" : 8,
                        "NORMAL" : 9,
                        "TEXCOORD_0" : 10
                    },
                    "indices" : 11,
                    "material" : 0
                },
                {
                    "attributes" : {
                        "POSITION" : 12,
                        "NORMAL" : 13,
                        "TEXCOORD_0" : 14
                    },
                    "indices" : 15,
                    "material" : 1
                }
            ]
        },
        {
            "name" : "Plane.003",
            "primitives" : [
                {
                    "attributes" : {
                        "POSITION" : 16,
                        "NORMAL" : 17,
                        "TEXCOORD_0" : 18,
                        "JOINTS_0" : 19,
                        "WEIGHTS_0" : 20
                    },
                    "indices" : 21,
                    "material" : 2
                },
                {
                    "attributes" : {
                        "POSITION" : 22,
                        "NORMAL" : 23,
                        "TEXCOORD_0" : 24,
                        "JOINTS_0" : 25,
                        "WEIGHTS_0" : 26
                    },
                    "indices" : 27,
                    "material" : 3
                }
            ]
        }
    ],
    "textures" : [
        {
            "source" : 0
        },
        {
            "source" : 1
        }
    ],
    "images" : [
        {
            "bufferView" : 22,
            "mimeType" : "image/jpeg",
            "name" : "franke"
        },
        {
            "bufferView" : 29,
            "mimeType" : "image/jpeg",
            "name" : "onyx_basecolor"
        }
    ],
    "accessors" : [
        {
            "bufferView" : 0,
            "componentType" : 5126,
            "count" : 3,
            "max" : [
                39.23224639892578,
                -3.9564361572265625,
                -21.916229248046875
            ],
            "min" : [
                34.964027404785156,
                -5.2783050537109375,
                -28.23126220703125
            ],
            "type" : "VEC3"
        },
        {
            "bufferView" : 1,
            "componentType" : 5126,
            "count" : 3,
            "type" : "VEC3"
        },
        {
            "bufferView" : 2,
            "componentType" : 5126,
            "count" : 3,
            "type" : "VEC2"
        },
        {
            "bufferView" : 3,
            "componentType" : 5123,
            "count" : 3,
            "type" : "SCALAR"
        },
        {
            "bufferView" : 4,
            "componentType" : 5126,
            "count" : 7776,
            "max" : [
                57.161659240722656,
                -0.0001220703125,
                57.00212097167969
            ],
            "min" : [
                -57.161678314208984,
                -30.1429443359375,
                -57.00163269042969
            ],
            "type" : "VEC3"
        },
        {
            "bufferView" : 5,
            "componentType" : 5126,
            "count" : 7776,
            "type" : "VEC3"
        },
        {
            "bufferView" : 6,
            "componentType" : 5126,
            "count" : 7776,
            "type" : "VEC2"
        },
        {
            "bufferView" : 7,
            "componentType" : 5123,
            "count" : 25635,
            "type" : "SCALAR"
        },
        {
            "bufferView" : 8,
            "componentType" : 5126,
            "count" : 111,
            "max" : [
                14.94921875,
                14.999977111816406,
                14.949207305908203
            ],
            "min" : [
                -10.685317993164062,
                -14.999969482421875,
                -10.685348510742188
            ],
            "type" : "VEC3"
        },
        {
            "bufferView" : 9,
            "componentType" : 5126,
            "count" : 111,
            "type" : "VEC3"
        },
        {
            "bufferView" : 10,
            "componentType" : 5126,
            "count" : 111,
            "type" : "VEC2"
        },
        {
            "bufferView" : 11,
            "componentType" : 5123,
            "count" : 135,
            "type" : "SCALAR"
        },
        {
            "bufferView" : 12,
            "componentType" : 5126,
            "count" : 4291,
            "max" : [
                13.692062377929688,
                17.814064025878906,
                13.640117645263672
            ],
            "min" : [
                -13.223846435546875,
                -17.748382568359375,
                -13.22003173828125
            ],
            "type" : "VEC3"
        },
        {
            "bufferView" : 13,
            "componentType" : 5126,
            "count" : 4291,
            "type" : "VEC3"
        },
        {
            "bufferView" : 14,
            "componentType" : 5126,
            "count" : 4291,
            "type" : "VEC2"
        },
        {
            "bufferView" : 15,
            "componentType" : 5123,
            "count" : 13824,
            "type" : "SCALAR"
        },
        {
            "bufferView" : 16,
            "componentType" : 5126,
            "count" : 8,
            "max" : [
                -225.4723663330078,
                0,
                -225
            ],
            "min" : [
                -270,
                0,
                -240
            ],
            "type" : "VEC3"
        },
        {
            "bufferView" : 17,
            "componentType" : 5126,
            "count" : 8,
            "type" : "VEC3"
        },
        {
            "bufferView" : 18,
            "componentType" : 5126,
            "count" : 8,
            "type" : "VEC2"
        },
        {
            "bufferView" : 19,
            "componentType" : 5123,
            "count" : 8,
            "type" : "VEC4"
        },
        {
            "bufferView" : 20,
            "componentType" : 5126,
            "count" : 8,
            "type" : "VEC4"
        },
        {
            "bufferView" : 21,
            "componentType" : 5123,
            "count" : 30,
            "type" : "SCALAR"
        },
        {
            "bufferView" : 23,
            "componentType" : 5126,
            "count" : 885,
            "max" : [
                292.5,
                0,
                260
            ],
            "min" : [
                -292.5,
                -204,
                -260
            ],
            "type" : "VEC3"
        },
        {
            "bufferView" : 24,
            "componentType" : 5126,
            "count" : 885,
            "type" : "VEC3"
        },
        {
            "bufferView" : 25,
            "componentType" : 5126,
            "count" : 885,
            "type" : "VEC2"
        },
        {
            "bufferView" : 26,
            "componentType" : 5123,
            "count" : 885,
            "type" : "VEC4"
        },
        {
            "bufferView" : 27,
            "componentType" : 5126,
            "count" : 885,
            "type" : "VEC4"
        },
        {
            "bufferView" : 28,
            "componentType" : 5123,
            "count" : 3402,
            "type" : "SCALAR"
        }
    ],
    "bufferViews" : [
        {
            "buffer" : 0,
            "byteLength" : 36,
            "byteOffset" : 0
        },
        {
            "buffer" : 0,
            "byteLength" : 36,
            "byteOffset" : 36
        },
        {
            "buffer" : 0,
            "byteLength" : 24,
            "byteOffset" : 72
        },
        {
            "buffer" : 0,
            "byteLength" : 6,
            "byteOffset" : 96
        },
        {
            "buffer" : 0,
            "byteLength" : 93312,
            "byteOffset" : 104
        },
        {
            "buffer" : 0,
            "byteLength" : 93312,
            "byteOffset" : 93416
        },
        {
            "buffer" : 0,
            "byteLength" : 62208,
            "byteOffset" : 186728
        },
        {
            "buffer" : 0,
            "byteLength" : 51270,
            "byteOffset" : 248936
        },
        {
            "buffer" : 0,
            "byteLength" : 1332,
            "byteOffset" : 300208
        },
        {
            "buffer" : 0,
            "byteLength" : 1332,
            "byteOffset" : 301540
        },
        {
            "buffer" : 0,
            "byteLength" : 888,
            "byteOffset" : 302872
        },
        {
            "buffer" : 0,
            "byteLength" : 270,
            "byteOffset" : 303760
        },
        {
            "buffer" : 0,
            "byteLength" : 51492,
            "byteOffset" : 304032
        },
        {
            "buffer" : 0,
            "byteLength" : 51492,
            "byteOffset" : 355524
        },
        {
            "buffer" : 0,
            "byteLength" : 34328,
            "byteOffset" : 407016
        },
        {
            "buffer" : 0,
            "byteLength" : 27648,
            "byteOffset" : 441344
        },
        {
            "buffer" : 0,
            "byteLength" : 96,
            "byteOffset" : 468992
        },
        {
            "buffer" : 0,
            "byteLength" : 96,
            "byteOffset" : 469088
        },
        {
            "buffer" : 0,
            "byteLength" : 64,
            "byteOffset" : 469184
        },
        {
            "buffer" : 0,
            "byteLength" : 64,
            "byteOffset" : 469248
        },
        {
            "buffer" : 0,
            "byteLength" : 128,
            "byteOffset" : 469312
        },
        {
            "buffer" : 0,
            "byteLength" : 60,
            "byteOffset" : 469440
        },
        {
            "buffer" : 0,
            "byteLength" : 52704,
            "byteOffset" : 469500
        },
        {
            "buffer" : 0,
            "byteLength" : 10620,
            "byteOffset" : 522204
        },
        {
            "buffer" : 0,
            "byteLength" : 10620,
            "byteOffset" : 532824
        },
        {
            "buffer" : 0,
            "byteLength" : 7080,
            "byteOffset" : 543444
        },
        {
            "buffer" : 0,
            "byteLength" : 7080,
            "byteOffset" : 550524
        },
        {
            "buffer" : 0,
            "byteLength" : 14160,
            "byteOffset" : 557604
        },
        {
            "buffer" : 0,
            "byteLength" : 6804,
            "byteOffset" : 571764
        },
        {
            "buffer" : 0,
            "byteLength" : 71419,
            "byteOffset" : 578568
        }
    ],
    "buffers" : [
        {
            "byteLength" : 649988,
            "uri" : "data:application/octet-stream;base64,"
        }
    ]
}
